<svg id="Layer_1" data-name="Layer 1" xmlns="http://www.w3.org/2000/svg" viewBox="0 0 800 400"><title>builders-gym</title><path d="M139,61.09v2.29c0,13.73-4.05,21.82-13.9,25.17v.35c11.61,3.52,16.54,12.67,16.54,28.86V122c0,20.24-10.91,31.15-31,31.15H83.17V29.94h26.05C128.58,29.94,139,40.85,139,61.09Zm-37.13-13.9V80.8h5.8c9,0,12.68-4.57,12.68-15v-4c0-10-3.7-14.61-11.8-14.61Zm0,50.86v37.84h8.09c9,0,13-4.75,13-15.14v-6.86c0-10.91-4-15.84-13.91-15.84Z"/><path d="M196.26,132.54c0,14.43-8.27,21.91-21.65,21.91-13.12,0-21.39-7.48-21.39-21.91V61.29H166.6v70.85c0,6.7,3,9.19,7.88,9.19s7.87-2.49,7.87-9.19V61.29h13.91Z"/><path d="M224.34,153.14H210.43V61.29h13.91Z"/><path d="M253.2,140h23.23v13.12H239.29V61.29H253.2Z"/><path d="M328.39,84.51v45.4c0,15.09-8.14,23.23-23.1,23.23H285.35V61.29h19.94C320.25,61.29,328.39,69.42,328.39,84.51ZM299.26,74.15v66.13h5.51c6.69,0,9.71-3.54,9.71-11.29V85.43c0-7.74-3-11.28-9.71-11.28Z"/><path d="M381,74.15H355.81v26h20.34V113H355.81v27.29H381v12.86H341.9V61.29H381Z"/><path d="M424.17,153.14l-11-38.84h-6.43v38.84H392.81V61.29h20.08c14.95,0,23.09,8.13,23.09,23.22v6.56c0,9.71-3.41,16.54-9.84,20.21l12.73,41.86Zm-17.45-79v27.29h5.64c6.69,0,9.71-3.54,9.71-11.28V85.43c0-7.74-3-11.28-9.71-11.28Z"/><path d="M486.1,80.58v2.36l-13.38,1.31V80.84c0-5.25-2.5-8-7.09-8s-7.08,2.75-7.08,8V82c0,5.38,2.36,10,11.67,17.85,12.73,10.76,17.46,18.37,17.46,29.39v4.59c0,13.12-7.75,20.6-21.52,20.6s-21.52-7.48-21.52-20.6v-6.17L458,126.37v6.56q0,8.65,7.87,8.66t7.88-8.66v-3c0-5.77-2.76-10.36-12.07-18.24C449,100.92,444.64,93.31,444.64,82.55v-2c0-13.12,7.48-20.6,20.73-20.6S486.1,67.46,486.1,80.58Z"/><path d="M362.86,306.5c-10.59,49.2-51.54,70.14-89.68,70.14-52.25,0-94.62-44.95-94.62-100.5,0-55.79,40-100.75,94.62-100.75,34.13,0,57.91,12.71,74.86,33.19l-29,31.78c-11.29-18.13-26.12-25-43.31-25-27.3,0-49.43,27.07-49.43,60.73,0,32.95,22.13,59.78,49.43,59.78,21.19,0,42.14-13.65,42.14-37.42H273.18V264.37h89.68Z"/><path d="M393.23,178.92l40.48,62.14,40.49-62.14h53.19L455.84,286v87.09H411.59V286L340,178.92Z"/><path d="M685.8,258h-1.17L644.85,371.94H618.48L578.71,258h-1.18l-9.18,115.1H524.1l17.41-194.19h47.08l43.08,112,43.07-112h47.08l17.42,194.19H695Z"/></svg>